<?xml version="1.0" standalone="no"?>
<!DOCTYPE svg PUBLIC "-//W3C//DTD SVG 20010904//EN"
 "http://www.w3.org/TR/2001/REC-SVG-20010904/DTD/svg10.dtd">
<svg version="1.0" xmlns="http://www.w3.org/2000/svg"
 width="512.000000pt" height="512.000000pt" viewBox="0 0 512.000000 512.000000"
 preserveAspectRatio="xMidYMid meet">

<g transform="translate(0.000000,512.000000) scale(0.100000,-0.100000)"
fill="#000000" stroke="none">
<path d="M2245 4934 c-523 -71 -1009 -310 -1378 -679 -196 -196 -335 -390
-457 -640 -118 -239 -187 -461 -227 -725 -24 -160 -24 -501 0 -660 82 -537
308 -990 682 -1366 365 -367 831 -599 1365 -681 158 -24 500 -24 660 0 440 67
843 242 1177 513 477 387 787 944 868 1557 8 65 15 137 15 160 l0 42 -1248
1248 -1247 1247 -55 -1 c-30 -1 -100 -7 -155 -15z m872 -1111 c141 -114 221
-185 227 -199 3 -9 6 -94 6 -190 l0 -174 -787 2 -788 3 -3 273 -2 273 29 30
29 29 616 0 615 0 58 -47z m724 -722 l29 -29 0 -512 0 -512 -29 -29 -29 -29
-166 0 -166 0 0 223 0 222 -30 52 c-21 36 -44 61 -77 80 l-48 28 -755 3 -755
2 -55 -27 c-67 -34 -106 -87 -120 -162 -5 -29 -10 -136 -10 -237 l0 -184 -159
0 c-155 0 -161 1 -188 24 l-28 24 0 522 0 522 28 24 28 24 1250 0 1251 0 29
-29z m-546 -645 c18 -8 38 -23 44 -34 8 -14 11 -194 11 -566 l0 -545 -24 -28
-24 -28 -726 -3 c-793 -3 -774 -4 -796 54 -15 37 -13 1076 1 1107 23 52 -19
49 1017 55 380 2 469 -1 497 -12z"/>
<path d="M2107 2192 c-22 -25 -21 -75 1 -95 17 -15 63 -17 455 -17 l436 0 15
22 c22 31 20 64 -4 88 -19 19 -33 20 -453 20 -408 0 -435 -1 -450 -18z"/>
<path d="M2140 1923 c-51 -19 -66 -77 -30 -113 19 -19 33 -20 450 -20 417 0
431 1 450 20 26 26 26 72 -1 96 -20 18 -43 19 -438 21 -229 1 -423 -1 -431 -4z"/>
<path d="M2110 1620 c-29 -29 -26 -74 6 -99 26 -20 37 -21 444 -21 407 0 418
1 444 21 32 25 35 70 6 99 -19 19 -33 20 -450 20 -417 0 -431 -1 -450 -20z"/>
</g>
</svg>
